<?xml version="1.0" encoding="utf-8"?>
<!-- Generator: Adobe Illustrator 16.0.0, SVG Export Plug-In . SVG Version: 6.00 Build 0)  -->
<!DOCTYPE svg PUBLIC "-//W3C//DTD SVG 1.1//EN" "http://www.w3.org/Graphics/SVG/1.1/DTD/svg11.dtd">
<svg version="1.1" id="Help" xmlns="http://www.w3.org/2000/svg" xmlns:xlink="http://www.w3.org/1999/xlink" x="0px" y="0px"
	 width="337px" height="517px" viewBox="0 0 337 517" enable-background="new 0 0 337 517" xml:space="preserve">
<g>
	<path fill="#D8D8D8" d="M283.006,41.035C251.086,18.019,210.99,6.511,162.719,6.511c-36.708,0-67.705,8.092-92.877,24.304
		c-39.955,25.368-61.18,68.46-63.756,129.22h92.596c0-17.724,5.181-34.72,15.484-51.184c10.332-16.408,27.86-24.612,52.584-24.612
		c25.146,0,42.478,6.664,51.912,19.964c9.492,13.356,14.226,28.112,14.226,44.296c0,14.112-7.058,27.02-15.598,38.724
		c-4.676,6.832-10.836,13.132-18.508,18.872c0,0-50.204,32.2-72.24,58.073c-12.768,14.979-13.916,37.463-15.062,69.664
		c-0.058,2.295,0.812,7.055,8.818,7.055c8.036,0,64.85,0,71.988,0c7.168,0,8.652-5.291,8.736-7.672
		c0.504-11.703,1.792-17.723,3.948-24.5c4.03-12.795,15.062-23.939,27.412-33.572l25.479-17.555
		c23.016-17.948,41.356-32.648,49.476-44.184c13.832-18.928,23.576-42.28,23.576-70C330.887,98.183,314.927,64.107,283.006,41.035z
		 M161.234,396.383c-31.892-0.98-58.212,21.113-59.221,55.721c-0.979,34.551,24.024,57.428,55.944,58.354
		c33.292,0.979,58.912-20.357,59.948-54.965C218.858,420.883,194.555,397.363,161.234,396.383z"/>
</g>
</svg>
