<?xml version="1.0" encoding="utf-8"?>
<!-- Generator: Adobe Illustrator 16.0.0, SVG Export Plug-In . SVG Version: 6.00 Build 0)  -->
<!DOCTYPE svg PUBLIC "-//W3C//DTD SVG 1.1//EN" "http://www.w3.org/Graphics/SVG/1.1/DTD/svg11.dtd">
<svg version="1.1" id="Magnifying_glass" xmlns="http://www.w3.org/2000/svg" xmlns:xlink="http://www.w3.org/1999/xlink" x="0px"
	 y="0px" width="454px" height="455px" viewBox="0 0 454 455" enable-background="new 0 0 454 455" xml:space="preserve">
<path fill="#D8D8D8" d="M438.264,380.572L332.451,274.76c15.961-26.18,25.145-56.979,25.145-89.88
	c0-95.676-82.908-178.556-178.584-178.556C83.335,6.296,5.803,83.856,5.803,179.532c0,95.646,82.908,178.556,178.558,178.556
	c31.836,0,61.6-8.65,87.219-23.632l106.373,106.428c10.416,10.39,27.299,10.39,37.688,0l26.404-26.402
	C452.432,404.092,448.652,390.96,438.264,380.572z M59.115,179.532c0-66.248,53.677-119.924,119.896-119.924
	c66.249,0,125.272,58.996,125.272,125.272c0,66.22-53.703,119.924-119.923,119.924C118.111,304.776,59.115,245.752,59.115,179.532z"
	/>
</svg>
